# xmcd
#
# Track frame offsets:
#	150
#	14624
#	27752
#	39402
#	54613
#	65574
#	78679
#	90164
#	101746
#	114672
#	128476
#	139382
#	152090
#	165290
#	176480
#
# Disc length: 2506 seconds
#
# Revision: 1
# Processed by: cddbd v1.5.2PL0 Copyright (c) Steve Scherf et al.
# Submitted via: audiograbber 1.83.01
#
DISCID=bd09c80f
DTITLE=B.B.King - Beale Street Blues Boys 05
DYEAR=1957
DGENRE=Blues
TTITLE0=B.B.King - Sweet Little Angel (King - Taub)
TTITLE1=B.B.King - On My Word of Honor ( Miles - Harrison)
TTITLE2=B.B.King - Early in the Morning (King - Josea)
TTITLE3=B.B.King - Can't We Talk It Over (Davis)
TTITLE4=B.B.King - Let's Do the Boogie (King - Taub)
TTITLE5=B.B.King - Troubles, Troubles, Troubles (King - Ling)
TTITLE6=B.B.King - I'm gonna Quit My Baby (King - Ling)
TTITLE7=B.B.King - The Key to My Kingdom (Baum - Davis - Josea)
TTITLE8=B.B.King - Be Careful With a Fool (King - Josea)
TTITLE9=B.B.King - I Want to Get Married (King - Josea)
TTITLE10=B.B.King - You Don't Know (King - Josea)
TTITLE11=B.B.King - I Wonder (King - Taub)
TTITLE12=B.B.King - I Need You So Bad (King - Taub)
TTITLE13=B.B.King - Days Of Old (King - Taub)
TTITLE14=B.B.King - Please Accept My Love (Garlow)
EXTD=
EXTT0=
EXTT1=
EXTT2=
EXTT3=
EXTT4=
EXTT5=
EXTT6=
EXTT7=
EXTT8=
EXTT9=
EXTT10=
EXTT11=
EXTT12=
EXTT13=
EXTT14=arr.by Ledeburgh
PLAYORDER=
